<?xml version="1.0" encoding="utf-8" standalone="no"?>
<!DOCTYPE svg PUBLIC "-//W3C//DTD SVG 1.1//EN"
  "http://www.w3.org/Graphics/SVG/1.1/DTD/svg11.dtd">
<svg xmlns:xlink="http://www.w3.org/1999/xlink" width="432pt" height="288pt" viewBox="0 0 432 288" xmlns="http://www.w3.org/2000/svg" version="1.1">
 <metadata>
  <rdf:RDF xmlns:dc="http://purl.org/dc/elements/1.1/" xmlns:cc="http://creativecommons.org/ns#" xmlns:rdf="http://www.w3.org/1999/02/22-rdf-syntax-ns#">
   <cc:Work>
    <dc:type rdf:resource="http://purl.org/dc/dcmitype/StillImage"/>
    <dc:date>2024-03-10T20:02:37.671510</dc:date>
    <dc:format>image/svg+xml</dc:format>
    <dc:creator>
     <cc:Agent>
      <dc:title>Matplotlib v3.8.3, https://matplotlib.org/</dc:title>
     </cc:Agent>
    </dc:creator>
   </cc:Work>
  </rdf:RDF>
 </metadata>
 <defs>
  <style type="text/css">*{stroke-linejoin: round; stroke-linecap: butt}</style>
 </defs>
 <g id="figure_1">
  <g id="patch_1">
   <path d="M 0 288 
L 432 288 
L 432 0 
L 0 0 
z
" style="fill: #ffffff"/>
  </g>
  <g id="axes_1">
   <g id="patch_2">
    <path d="M 54 252 
L 388.8 252 
L 388.8 34.56 
L 54 34.56 
z
" style="fill: #ffffff"/>
   </g>
   <g id="PolyCollection_1">
    <path d="M 77.711048 62.921739 
L 77.711048 62.921739 
L 125.133144 123.414267 
L 172.555241 169.162389 
L 219.977337 218.365525 
L 267.399433 245.512868 
L 314.82153 249.301017 
L 362.243626 250.710052 
L 362.243626 247.440799 
L 362.243626 247.440799 
L 314.82153 248.099569 
L 267.399433 240.459122 
L 219.977337 205.680297 
L 172.555241 153.906772 
L 125.133144 108.391027 
L 77.711048 62.921739 
z
" clip-path="url(#pa04fccaf33)" style="fill: #2ca02c; fill-opacity: 0.2"/>
   </g>
   <g id="PolyCollection_2">
    <path d="M 77.711048 62.921739 
L 77.711048 62.921739 
L 125.133144 69.495444 
L 172.555241 76.761646 
L 219.977337 84.570844 
L 267.399433 98.861074 
L 314.82153 105.826243 
L 362.243626 108.621979 
L 362.243626 88.507141 
L 362.243626 88.507141 
L 314.82153 86.590465 
L 267.399433 79.639047 
L 219.977337 65.998513 
L 172.555241 61.770314 
L 125.133144 57.093735 
L 77.711048 62.921739 
z
" clip-path="url(#pa04fccaf33)" style="fill: #1f77b4; fill-opacity: 0.2"/>
   </g>
   <g id="PolyCollection_3">
    <path d="M 77.711048 62.921739 
L 77.711048 62.921739 
L 125.133144 70.45463 
L 172.555241 79.1602 
L 219.977337 83.575359 
L 267.399433 90.297577 
L 314.82153 94.217306 
L 362.243626 99.832416 
L 362.243626 84.005775 
L 362.243626 84.005775 
L 314.82153 79.146807 
L 267.399433 74.591128 
L 219.977337 69.280946 
L 172.555241 64.951502 
L 125.133144 57.367554 
L 77.711048 62.921739 
z
" clip-path="url(#pa04fccaf33)" style="fill: #ff7f0e; fill-opacity: 0.2"/>
   </g>
   <g id="PolyCollection_4">
    <path d="M 77.711048 62.921739 
L 77.711048 62.921739 
L 125.133144 192.47672 
L 172.555241 249.532667 
L 219.977337 250.852352 
L 267.399433 250.871369 
L 314.82153 251.002933 
L 362.243626 251.418281 
L 362.243626 251.395069 
L 362.243626 251.395069 
L 314.82153 250.963147 
L 267.399433 250.826333 
L 219.977337 250.806557 
L 172.555241 245.477352 
L 125.133144 176.886431 
L 77.711048 62.921739 
z
" clip-path="url(#pa04fccaf33)" style="fill: #d62728; fill-opacity: 0.2"/>
   </g>
   <g id="matplotlib.axis_1">
    <g id="xtick_1">
     <g id="line2d_1">
      <path d="M 77.711048 252 
L 77.711048 34.56 
" clip-path="url(#pa04fccaf33)" style="fill: none; stroke: #b0b0b0; stroke-width: 0.8; stroke-linecap: square"/>
     </g>
     <g id="line2d_2">
      <defs>
       <path id="ma1c21acaaa" d="M 0 0 
L 0 3.5 
" style="stroke: #000000; stroke-width: 0.8"/>
      </defs>
      <g>
       <use xlink:href="#ma1c21acaaa" x="77.711048" y="252" style="stroke: #000000; stroke-width: 0.8"/>
      </g>
     </g>
     <g id="text_1">
      <!-- 0 -->
      <g transform="translate(74.529798 266.598437) scale(0.1 -0.1)">
       <defs>
        <path id="DejaVuSans-30" d="M 2034 4250 
Q 1547 4250 1301 3770 
Q 1056 3291 1056 2328 
Q 1056 1369 1301 889 
Q 1547 409 2034 409 
Q 2525 409 2770 889 
Q 3016 1369 3016 2328 
Q 3016 3291 2770 3770 
Q 2525 4250 2034 4250 
z
M 2034 4750 
Q 2819 4750 3233 4129 
Q 3647 3509 3647 2328 
Q 3647 1150 3233 529 
Q 2819 -91 2034 -91 
Q 1250 -91 836 529 
Q 422 1150 422 2328 
Q 422 3509 836 4129 
Q 1250 4750 2034 4750 
z
" transform="scale(0.015625)"/>
       </defs>
       <use xlink:href="#DejaVuSans-30"/>
      </g>
     </g>
    </g>
    <g id="xtick_2">
     <g id="line2d_3">
      <path d="M 125.133144 252 
L 125.133144 34.56 
" clip-path="url(#pa04fccaf33)" style="fill: none; stroke: #b0b0b0; stroke-width: 0.8; stroke-linecap: square"/>
     </g>
     <g id="line2d_4">
      <g>
       <use xlink:href="#ma1c21acaaa" x="125.133144" y="252" style="stroke: #000000; stroke-width: 0.8"/>
      </g>
     </g>
     <g id="text_2">
      <!-- 1 -->
      <g transform="translate(121.951894 266.598437) scale(0.1 -0.1)">
       <defs>
        <path id="DejaVuSans-31" d="M 794 531 
L 1825 531 
L 1825 4091 
L 703 3866 
L 703 4441 
L 1819 4666 
L 2450 4666 
L 2450 531 
L 3481 531 
L 3481 0 
L 794 0 
L 794 531 
z
" transform="scale(0.015625)"/>
       </defs>
       <use xlink:href="#DejaVuSans-31"/>
      </g>
     </g>
    </g>
    <g id="xtick_3">
     <g id="line2d_5">
      <path d="M 172.555241 252 
L 172.555241 34.56 
" clip-path="url(#pa04fccaf33)" style="fill: none; stroke: #b0b0b0; stroke-width: 0.8; stroke-linecap: square"/>
     </g>
     <g id="line2d_6">
      <g>
       <use xlink:href="#ma1c21acaaa" x="172.555241" y="252" style="stroke: #000000; stroke-width: 0.8"/>
      </g>
     </g>
     <g id="text_3">
      <!-- 2 -->
      <g transform="translate(169.373991 266.598437) scale(0.1 -0.1)">
       <defs>
        <path id="DejaVuSans-32" d="M 1228 531 
L 3431 531 
L 3431 0 
L 469 0 
L 469 531 
Q 828 903 1448 1529 
Q 2069 2156 2228 2338 
Q 2531 2678 2651 2914 
Q 2772 3150 2772 3378 
Q 2772 3750 2511 3984 
Q 2250 4219 1831 4219 
Q 1534 4219 1204 4116 
Q 875 4013 500 3803 
L 500 4441 
Q 881 4594 1212 4672 
Q 1544 4750 1819 4750 
Q 2544 4750 2975 4387 
Q 3406 4025 3406 3419 
Q 3406 3131 3298 2873 
Q 3191 2616 2906 2266 
Q 2828 2175 2409 1742 
Q 1991 1309 1228 531 
z
" transform="scale(0.015625)"/>
       </defs>
       <use xlink:href="#DejaVuSans-32"/>
      </g>
     </g>
    </g>
    <g id="xtick_4">
     <g id="line2d_7">
      <path d="M 219.977337 252 
L 219.977337 34.56 
" clip-path="url(#pa04fccaf33)" style="fill: none; stroke: #b0b0b0; stroke-width: 0.8; stroke-linecap: square"/>
     </g>
     <g id="line2d_8">
      <g>
       <use xlink:href="#ma1c21acaaa" x="219.977337" y="252" style="stroke: #000000; stroke-width: 0.8"/>
      </g>
     </g>
     <g id="text_4">
      <!-- 3 -->
      <g transform="translate(216.796087 266.598437) scale(0.1 -0.1)">
       <defs>
        <path id="DejaVuSans-33" d="M 2597 2516 
Q 3050 2419 3304 2112 
Q 3559 1806 3559 1356 
Q 3559 666 3084 287 
Q 2609 -91 1734 -91 
Q 1441 -91 1130 -33 
Q 819 25 488 141 
L 488 750 
Q 750 597 1062 519 
Q 1375 441 1716 441 
Q 2309 441 2620 675 
Q 2931 909 2931 1356 
Q 2931 1769 2642 2001 
Q 2353 2234 1838 2234 
L 1294 2234 
L 1294 2753 
L 1863 2753 
Q 2328 2753 2575 2939 
Q 2822 3125 2822 3475 
Q 2822 3834 2567 4026 
Q 2313 4219 1838 4219 
Q 1578 4219 1281 4162 
Q 984 4106 628 3988 
L 628 4550 
Q 988 4650 1302 4700 
Q 1616 4750 1894 4750 
Q 2613 4750 3031 4423 
Q 3450 4097 3450 3541 
Q 3450 3153 3228 2886 
Q 3006 2619 2597 2516 
z
" transform="scale(0.015625)"/>
       </defs>
       <use xlink:href="#DejaVuSans-33"/>
      </g>
     </g>
    </g>
    <g id="xtick_5">
     <g id="line2d_9">
      <path d="M 267.399433 252 
L 267.399433 34.56 
" clip-path="url(#pa04fccaf33)" style="fill: none; stroke: #b0b0b0; stroke-width: 0.8; stroke-linecap: square"/>
     </g>
     <g id="line2d_10">
      <g>
       <use xlink:href="#ma1c21acaaa" x="267.399433" y="252" style="stroke: #000000; stroke-width: 0.8"/>
      </g>
     </g>
     <g id="text_5">
      <!-- 4 -->
      <g transform="translate(264.218183 266.598437) scale(0.1 -0.1)">
       <defs>
        <path id="DejaVuSans-34" d="M 2419 4116 
L 825 1625 
L 2419 1625 
L 2419 4116 
z
M 2253 4666 
L 3047 4666 
L 3047 1625 
L 3713 1625 
L 3713 1100 
L 3047 1100 
L 3047 0 
L 2419 0 
L 2419 1100 
L 313 1100 
L 313 1709 
L 2253 4666 
z
" transform="scale(0.015625)"/>
       </defs>
       <use xlink:href="#DejaVuSans-34"/>
      </g>
     </g>
    </g>
    <g id="xtick_6">
     <g id="line2d_11">
      <path d="M 314.82153 252 
L 314.82153 34.56 
" clip-path="url(#pa04fccaf33)" style="fill: none; stroke: #b0b0b0; stroke-width: 0.8; stroke-linecap: square"/>
     </g>
     <g id="line2d_12">
      <g>
       <use xlink:href="#ma1c21acaaa" x="314.82153" y="252" style="stroke: #000000; stroke-width: 0.8"/>
      </g>
     </g>
     <g id="text_6">
      <!-- 5 -->
      <g transform="translate(311.64028 266.598437) scale(0.1 -0.1)">
       <defs>
        <path id="DejaVuSans-35" d="M 691 4666 
L 3169 4666 
L 3169 4134 
L 1269 4134 
L 1269 2991 
Q 1406 3038 1543 3061 
Q 1681 3084 1819 3084 
Q 2600 3084 3056 2656 
Q 3513 2228 3513 1497 
Q 3513 744 3044 326 
Q 2575 -91 1722 -91 
Q 1428 -91 1123 -41 
Q 819 9 494 109 
L 494 744 
Q 775 591 1075 516 
Q 1375 441 1709 441 
Q 2250 441 2565 725 
Q 2881 1009 2881 1497 
Q 2881 1984 2565 2268 
Q 2250 2553 1709 2553 
Q 1456 2553 1204 2497 
Q 953 2441 691 2322 
L 691 4666 
z
" transform="scale(0.015625)"/>
       </defs>
       <use xlink:href="#DejaVuSans-35"/>
      </g>
     </g>
    </g>
    <g id="xtick_7">
     <g id="line2d_13">
      <path d="M 362.243626 252 
L 362.243626 34.56 
" clip-path="url(#pa04fccaf33)" style="fill: none; stroke: #b0b0b0; stroke-width: 0.8; stroke-linecap: square"/>
     </g>
     <g id="line2d_14">
      <g>
       <use xlink:href="#ma1c21acaaa" x="362.243626" y="252" style="stroke: #000000; stroke-width: 0.8"/>
      </g>
     </g>
     <g id="text_7">
      <!-- 6 -->
      <g transform="translate(359.062376 266.598437) scale(0.1 -0.1)">
       <defs>
        <path id="DejaVuSans-36" d="M 2113 2584 
Q 1688 2584 1439 2293 
Q 1191 2003 1191 1497 
Q 1191 994 1439 701 
Q 1688 409 2113 409 
Q 2538 409 2786 701 
Q 3034 994 3034 1497 
Q 3034 2003 2786 2293 
Q 2538 2584 2113 2584 
z
M 3366 4563 
L 3366 3988 
Q 3128 4100 2886 4159 
Q 2644 4219 2406 4219 
Q 1781 4219 1451 3797 
Q 1122 3375 1075 2522 
Q 1259 2794 1537 2939 
Q 1816 3084 2150 3084 
Q 2853 3084 3261 2657 
Q 3669 2231 3669 1497 
Q 3669 778 3244 343 
Q 2819 -91 2113 -91 
Q 1303 -91 875 529 
Q 447 1150 447 2328 
Q 447 3434 972 4092 
Q 1497 4750 2381 4750 
Q 2619 4750 2861 4703 
Q 3103 4656 3366 4563 
z
" transform="scale(0.015625)"/>
       </defs>
       <use xlink:href="#DejaVuSans-36"/>
      </g>
     </g>
    </g>
    <g id="text_8">
     <!-- Overhead level -->
     <g transform="translate(183.496875 280.276563) scale(0.1 -0.1)">
      <defs>
       <path id="DejaVuSans-4f" d="M 2522 4238 
Q 1834 4238 1429 3725 
Q 1025 3213 1025 2328 
Q 1025 1447 1429 934 
Q 1834 422 2522 422 
Q 3209 422 3611 934 
Q 4013 1447 4013 2328 
Q 4013 3213 3611 3725 
Q 3209 4238 2522 4238 
z
M 2522 4750 
Q 3503 4750 4090 4092 
Q 4678 3434 4678 2328 
Q 4678 1225 4090 567 
Q 3503 -91 2522 -91 
Q 1538 -91 948 565 
Q 359 1222 359 2328 
Q 359 3434 948 4092 
Q 1538 4750 2522 4750 
z
" transform="scale(0.015625)"/>
       <path id="DejaVuSans-76" d="M 191 3500 
L 800 3500 
L 1894 563 
L 2988 3500 
L 3597 3500 
L 2284 0 
L 1503 0 
L 191 3500 
z
" transform="scale(0.015625)"/>
       <path id="DejaVuSans-65" d="M 3597 1894 
L 3597 1613 
L 953 1613 
Q 991 1019 1311 708 
Q 1631 397 2203 397 
Q 2534 397 2845 478 
Q 3156 559 3463 722 
L 3463 178 
Q 3153 47 2828 -22 
Q 2503 -91 2169 -91 
Q 1331 -91 842 396 
Q 353 884 353 1716 
Q 353 2575 817 3079 
Q 1281 3584 2069 3584 
Q 2775 3584 3186 3129 
Q 3597 2675 3597 1894 
z
M 3022 2063 
Q 3016 2534 2758 2815 
Q 2500 3097 2075 3097 
Q 1594 3097 1305 2825 
Q 1016 2553 972 2059 
L 3022 2063 
z
" transform="scale(0.015625)"/>
       <path id="DejaVuSans-72" d="M 2631 2963 
Q 2534 3019 2420 3045 
Q 2306 3072 2169 3072 
Q 1681 3072 1420 2755 
Q 1159 2438 1159 1844 
L 1159 0 
L 581 0 
L 581 3500 
L 1159 3500 
L 1159 2956 
Q 1341 3275 1631 3429 
Q 1922 3584 2338 3584 
Q 2397 3584 2469 3576 
Q 2541 3569 2628 3553 
L 2631 2963 
z
" transform="scale(0.015625)"/>
       <path id="DejaVuSans-68" d="M 3513 2113 
L 3513 0 
L 2938 0 
L 2938 2094 
Q 2938 2591 2744 2837 
Q 2550 3084 2163 3084 
Q 1697 3084 1428 2787 
Q 1159 2491 1159 1978 
L 1159 0 
L 581 0 
L 581 4863 
L 1159 4863 
L 1159 2956 
Q 1366 3272 1645 3428 
Q 1925 3584 2291 3584 
Q 2894 3584 3203 3211 
Q 3513 2838 3513 2113 
z
" transform="scale(0.015625)"/>
       <path id="DejaVuSans-61" d="M 2194 1759 
Q 1497 1759 1228 1600 
Q 959 1441 959 1056 
Q 959 750 1161 570 
Q 1363 391 1709 391 
Q 2188 391 2477 730 
Q 2766 1069 2766 1631 
L 2766 1759 
L 2194 1759 
z
M 3341 1997 
L 3341 0 
L 2766 0 
L 2766 531 
Q 2569 213 2275 61 
Q 1981 -91 1556 -91 
Q 1019 -91 701 211 
Q 384 513 384 1019 
Q 384 1609 779 1909 
Q 1175 2209 1959 2209 
L 2766 2209 
L 2766 2266 
Q 2766 2663 2505 2880 
Q 2244 3097 1772 3097 
Q 1472 3097 1187 3025 
Q 903 2953 641 2809 
L 641 3341 
Q 956 3463 1253 3523 
Q 1550 3584 1831 3584 
Q 2591 3584 2966 3190 
Q 3341 2797 3341 1997 
z
" transform="scale(0.015625)"/>
       <path id="DejaVuSans-64" d="M 2906 2969 
L 2906 4863 
L 3481 4863 
L 3481 0 
L 2906 0 
L 2906 525 
Q 2725 213 2448 61 
Q 2172 -91 1784 -91 
Q 1150 -91 751 415 
Q 353 922 353 1747 
Q 353 2572 751 3078 
Q 1150 3584 1784 3584 
Q 2172 3584 2448 3432 
Q 2725 3281 2906 2969 
z
M 947 1747 
Q 947 1113 1208 752 
Q 1469 391 1925 391 
Q 2381 391 2643 752 
Q 2906 1113 2906 1747 
Q 2906 2381 2643 2742 
Q 2381 3103 1925 3103 
Q 1469 3103 1208 2742 
Q 947 2381 947 1747 
z
" transform="scale(0.015625)"/>
       <path id="DejaVuSans-20" transform="scale(0.015625)"/>
       <path id="DejaVuSans-6c" d="M 603 4863 
L 1178 4863 
L 1178 0 
L 603 0 
L 603 4863 
z
" transform="scale(0.015625)"/>
      </defs>
      <use xlink:href="#DejaVuSans-4f"/>
      <use xlink:href="#DejaVuSans-76" x="78.710938"/>
      <use xlink:href="#DejaVuSans-65" x="137.890625"/>
      <use xlink:href="#DejaVuSans-72" x="199.414062"/>
      <use xlink:href="#DejaVuSans-68" x="238.777344"/>
      <use xlink:href="#DejaVuSans-65" x="302.15625"/>
      <use xlink:href="#DejaVuSans-61" x="363.679688"/>
      <use xlink:href="#DejaVuSans-64" x="424.958984"/>
      <use xlink:href="#DejaVuSans-20" x="488.435547"/>
      <use xlink:href="#DejaVuSans-6c" x="520.222656"/>
      <use xlink:href="#DejaVuSans-65" x="548.005859"/>
      <use xlink:href="#DejaVuSans-76" x="609.529297"/>
      <use xlink:href="#DejaVuSans-65" x="668.708984"/>
      <use xlink:href="#DejaVuSans-6c" x="730.232422"/>
     </g>
    </g>
   </g>
   <g id="matplotlib.axis_2">
    <g id="ytick_1">
     <g id="line2d_15">
      <path d="M 54 252 
L 388.8 252 
" clip-path="url(#pa04fccaf33)" style="fill: none; stroke: #b0b0b0; stroke-width: 0.8; stroke-linecap: square"/>
     </g>
     <g id="line2d_16">
      <defs>
       <path id="m40c09bbfa2" d="M 0 0 
L -3.5 0 
" style="stroke: #000000; stroke-width: 0.8"/>
      </defs>
      <g>
       <use xlink:href="#m40c09bbfa2" x="54" y="252" style="stroke: #000000; stroke-width: 0.8"/>
      </g>
     </g>
     <g id="text_9">
      <!-- 0 -->
      <g transform="translate(40.6375 255.799219) scale(0.1 -0.1)">
       <use xlink:href="#DejaVuSans-30"/>
      </g>
     </g>
    </g>
    <g id="ytick_2">
     <g id="line2d_17">
      <path d="M 54 227.545155 
L 388.8 227.545155 
" clip-path="url(#pa04fccaf33)" style="fill: none; stroke: #b0b0b0; stroke-width: 0.8; stroke-linecap: square"/>
     </g>
     <g id="line2d_18">
      <g>
       <use xlink:href="#m40c09bbfa2" x="54" y="227.545155" style="stroke: #000000; stroke-width: 0.8"/>
      </g>
     </g>
     <g id="text_10">
      <!-- 10 -->
      <g transform="translate(34.275 231.344374) scale(0.1 -0.1)">
       <use xlink:href="#DejaVuSans-31"/>
       <use xlink:href="#DejaVuSans-30" x="63.623047"/>
      </g>
     </g>
    </g>
    <g id="ytick_3">
     <g id="line2d_19">
      <path d="M 54 203.09031 
L 388.8 203.09031 
" clip-path="url(#pa04fccaf33)" style="fill: none; stroke: #b0b0b0; stroke-width: 0.8; stroke-linecap: square"/>
     </g>
     <g id="line2d_20">
      <g>
       <use xlink:href="#m40c09bbfa2" x="54" y="203.09031" style="stroke: #000000; stroke-width: 0.8"/>
      </g>
     </g>
     <g id="text_11">
      <!-- 20 -->
      <g transform="translate(34.275 206.889529) scale(0.1 -0.1)">
       <use xlink:href="#DejaVuSans-32"/>
       <use xlink:href="#DejaVuSans-30" x="63.623047"/>
      </g>
     </g>
    </g>
    <g id="ytick_4">
     <g id="line2d_21">
      <path d="M 54 178.635465 
L 388.8 178.635465 
" clip-path="url(#pa04fccaf33)" style="fill: none; stroke: #b0b0b0; stroke-width: 0.8; stroke-linecap: square"/>
     </g>
     <g id="line2d_22">
      <g>
       <use xlink:href="#m40c09bbfa2" x="54" y="178.635465" style="stroke: #000000; stroke-width: 0.8"/>
      </g>
     </g>
     <g id="text_12">
      <!-- 30 -->
      <g transform="translate(34.275 182.434684) scale(0.1 -0.1)">
       <use xlink:href="#DejaVuSans-33"/>
       <use xlink:href="#DejaVuSans-30" x="63.623047"/>
      </g>
     </g>
    </g>
    <g id="ytick_5">
     <g id="line2d_23">
      <path d="M 54 154.18062 
L 388.8 154.18062 
" clip-path="url(#pa04fccaf33)" style="fill: none; stroke: #b0b0b0; stroke-width: 0.8; stroke-linecap: square"/>
     </g>
     <g id="line2d_24">
      <g>
       <use xlink:href="#m40c09bbfa2" x="54" y="154.18062" style="stroke: #000000; stroke-width: 0.8"/>
      </g>
     </g>
     <g id="text_13">
      <!-- 40 -->
      <g transform="translate(34.275 157.979839) scale(0.1 -0.1)">
       <use xlink:href="#DejaVuSans-34"/>
       <use xlink:href="#DejaVuSans-30" x="63.623047"/>
      </g>
     </g>
    </g>
    <g id="ytick_6">
     <g id="line2d_25">
      <path d="M 54 129.725776 
L 388.8 129.725776 
" clip-path="url(#pa04fccaf33)" style="fill: none; stroke: #b0b0b0; stroke-width: 0.8; stroke-linecap: square"/>
     </g>
     <g id="line2d_26">
      <g>
       <use xlink:href="#m40c09bbfa2" x="54" y="129.725776" style="stroke: #000000; stroke-width: 0.8"/>
      </g>
     </g>
     <g id="text_14">
      <!-- 50 -->
      <g transform="translate(34.275 133.524994) scale(0.1 -0.1)">
       <use xlink:href="#DejaVuSans-35"/>
       <use xlink:href="#DejaVuSans-30" x="63.623047"/>
      </g>
     </g>
    </g>
    <g id="ytick_7">
     <g id="line2d_27">
      <path d="M 54 105.270931 
L 388.8 105.270931 
" clip-path="url(#pa04fccaf33)" style="fill: none; stroke: #b0b0b0; stroke-width: 0.8; stroke-linecap: square"/>
     </g>
     <g id="line2d_28">
      <g>
       <use xlink:href="#m40c09bbfa2" x="54" y="105.270931" style="stroke: #000000; stroke-width: 0.8"/>
      </g>
     </g>
     <g id="text_15">
      <!-- 60 -->
      <g transform="translate(34.275 109.070149) scale(0.1 -0.1)">
       <use xlink:href="#DejaVuSans-36"/>
       <use xlink:href="#DejaVuSans-30" x="63.623047"/>
      </g>
     </g>
    </g>
    <g id="ytick_8">
     <g id="line2d_29">
      <path d="M 54 80.816086 
L 388.8 80.816086 
" clip-path="url(#pa04fccaf33)" style="fill: none; stroke: #b0b0b0; stroke-width: 0.8; stroke-linecap: square"/>
     </g>
     <g id="line2d_30">
      <g>
       <use xlink:href="#m40c09bbfa2" x="54" y="80.816086" style="stroke: #000000; stroke-width: 0.8"/>
      </g>
     </g>
     <g id="text_16">
      <!-- 70 -->
      <g transform="translate(34.275 84.615305) scale(0.1 -0.1)">
       <defs>
        <path id="DejaVuSans-37" d="M 525 4666 
L 3525 4666 
L 3525 4397 
L 1831 0 
L 1172 0 
L 2766 4134 
L 525 4134 
L 525 4666 
z
" transform="scale(0.015625)"/>
       </defs>
       <use xlink:href="#DejaVuSans-37"/>
       <use xlink:href="#DejaVuSans-30" x="63.623047"/>
      </g>
     </g>
    </g>
    <g id="ytick_9">
     <g id="line2d_31">
      <path d="M 54 56.361241 
L 388.8 56.361241 
" clip-path="url(#pa04fccaf33)" style="fill: none; stroke: #b0b0b0; stroke-width: 0.8; stroke-linecap: square"/>
     </g>
     <g id="line2d_32">
      <g>
       <use xlink:href="#m40c09bbfa2" x="54" y="56.361241" style="stroke: #000000; stroke-width: 0.8"/>
      </g>
     </g>
     <g id="text_17">
      <!-- 80 -->
      <g transform="translate(34.275 60.16046) scale(0.1 -0.1)">
       <defs>
        <path id="DejaVuSans-38" d="M 2034 2216 
Q 1584 2216 1326 1975 
Q 1069 1734 1069 1313 
Q 1069 891 1326 650 
Q 1584 409 2034 409 
Q 2484 409 2743 651 
Q 3003 894 3003 1313 
Q 3003 1734 2745 1975 
Q 2488 2216 2034 2216 
z
M 1403 2484 
Q 997 2584 770 2862 
Q 544 3141 544 3541 
Q 544 4100 942 4425 
Q 1341 4750 2034 4750 
Q 2731 4750 3128 4425 
Q 3525 4100 3525 3541 
Q 3525 3141 3298 2862 
Q 3072 2584 2669 2484 
Q 3125 2378 3379 2068 
Q 3634 1759 3634 1313 
Q 3634 634 3220 271 
Q 2806 -91 2034 -91 
Q 1263 -91 848 271 
Q 434 634 434 1313 
Q 434 1759 690 2068 
Q 947 2378 1403 2484 
z
M 1172 3481 
Q 1172 3119 1398 2916 
Q 1625 2713 2034 2713 
Q 2441 2713 2670 2916 
Q 2900 3119 2900 3481 
Q 2900 3844 2670 4047 
Q 2441 4250 2034 4250 
Q 1625 4250 1398 4047 
Q 1172 3844 1172 3481 
z
" transform="scale(0.015625)"/>
       </defs>
       <use xlink:href="#DejaVuSans-38"/>
       <use xlink:href="#DejaVuSans-30" x="63.623047"/>
      </g>
     </g>
    </g>
    <g id="text_18">
     <!-- Mean position error for a NLoS user (m) -->
     <g transform="translate(28.195312 242.222969) rotate(-90) scale(0.1 -0.1)">
      <defs>
       <path id="DejaVuSans-4d" d="M 628 4666 
L 1569 4666 
L 2759 1491 
L 3956 4666 
L 4897 4666 
L 4897 0 
L 4281 0 
L 4281 4097 
L 3078 897 
L 2444 897 
L 1241 4097 
L 1241 0 
L 628 0 
L 628 4666 
z
" transform="scale(0.015625)"/>
       <path id="DejaVuSans-6e" d="M 3513 2113 
L 3513 0 
L 2938 0 
L 2938 2094 
Q 2938 2591 2744 2837 
Q 2550 3084 2163 3084 
Q 1697 3084 1428 2787 
Q 1159 2491 1159 1978 
L 1159 0 
L 581 0 
L 581 3500 
L 1159 3500 
L 1159 2956 
Q 1366 3272 1645 3428 
Q 1925 3584 2291 3584 
Q 2894 3584 3203 3211 
Q 3513 2838 3513 2113 
z
" transform="scale(0.015625)"/>
       <path id="DejaVuSans-70" d="M 1159 525 
L 1159 -1331 
L 581 -1331 
L 581 3500 
L 1159 3500 
L 1159 2969 
Q 1341 3281 1617 3432 
Q 1894 3584 2278 3584 
Q 2916 3584 3314 3078 
Q 3713 2572 3713 1747 
Q 3713 922 3314 415 
Q 2916 -91 2278 -91 
Q 1894 -91 1617 61 
Q 1341 213 1159 525 
z
M 3116 1747 
Q 3116 2381 2855 2742 
Q 2594 3103 2138 3103 
Q 1681 3103 1420 2742 
Q 1159 2381 1159 1747 
Q 1159 1113 1420 752 
Q 1681 391 2138 391 
Q 2594 391 2855 752 
Q 3116 1113 3116 1747 
z
" transform="scale(0.015625)"/>
       <path id="DejaVuSans-6f" d="M 1959 3097 
Q 1497 3097 1228 2736 
Q 959 2375 959 1747 
Q 959 1119 1226 758 
Q 1494 397 1959 397 
Q 2419 397 2687 759 
Q 2956 1122 2956 1747 
Q 2956 2369 2687 2733 
Q 2419 3097 1959 3097 
z
M 1959 3584 
Q 2709 3584 3137 3096 
Q 3566 2609 3566 1747 
Q 3566 888 3137 398 
Q 2709 -91 1959 -91 
Q 1206 -91 779 398 
Q 353 888 353 1747 
Q 353 2609 779 3096 
Q 1206 3584 1959 3584 
z
" transform="scale(0.015625)"/>
       <path id="DejaVuSans-73" d="M 2834 3397 
L 2834 2853 
Q 2591 2978 2328 3040 
Q 2066 3103 1784 3103 
Q 1356 3103 1142 2972 
Q 928 2841 928 2578 
Q 928 2378 1081 2264 
Q 1234 2150 1697 2047 
L 1894 2003 
Q 2506 1872 2764 1633 
Q 3022 1394 3022 966 
Q 3022 478 2636 193 
Q 2250 -91 1575 -91 
Q 1294 -91 989 -36 
Q 684 19 347 128 
L 347 722 
Q 666 556 975 473 
Q 1284 391 1588 391 
Q 1994 391 2212 530 
Q 2431 669 2431 922 
Q 2431 1156 2273 1281 
Q 2116 1406 1581 1522 
L 1381 1569 
Q 847 1681 609 1914 
Q 372 2147 372 2553 
Q 372 3047 722 3315 
Q 1072 3584 1716 3584 
Q 2034 3584 2315 3537 
Q 2597 3491 2834 3397 
z
" transform="scale(0.015625)"/>
       <path id="DejaVuSans-69" d="M 603 3500 
L 1178 3500 
L 1178 0 
L 603 0 
L 603 3500 
z
M 603 4863 
L 1178 4863 
L 1178 4134 
L 603 4134 
L 603 4863 
z
" transform="scale(0.015625)"/>
       <path id="DejaVuSans-74" d="M 1172 4494 
L 1172 3500 
L 2356 3500 
L 2356 3053 
L 1172 3053 
L 1172 1153 
Q 1172 725 1289 603 
Q 1406 481 1766 481 
L 2356 481 
L 2356 0 
L 1766 0 
Q 1100 0 847 248 
Q 594 497 594 1153 
L 594 3053 
L 172 3053 
L 172 3500 
L 594 3500 
L 594 4494 
L 1172 4494 
z
" transform="scale(0.015625)"/>
       <path id="DejaVuSans-66" d="M 2375 4863 
L 2375 4384 
L 1825 4384 
Q 1516 4384 1395 4259 
Q 1275 4134 1275 3809 
L 1275 3500 
L 2222 3500 
L 2222 3053 
L 1275 3053 
L 1275 0 
L 697 0 
L 697 3053 
L 147 3053 
L 147 3500 
L 697 3500 
L 697 3744 
Q 697 4328 969 4595 
Q 1241 4863 1831 4863 
L 2375 4863 
z
" transform="scale(0.015625)"/>
       <path id="DejaVuSans-4e" d="M 628 4666 
L 1478 4666 
L 3547 763 
L 3547 4666 
L 4159 4666 
L 4159 0 
L 3309 0 
L 1241 3903 
L 1241 0 
L 628 0 
L 628 4666 
z
" transform="scale(0.015625)"/>
       <path id="DejaVuSans-4c" d="M 628 4666 
L 1259 4666 
L 1259 531 
L 3531 531 
L 3531 0 
L 628 0 
L 628 4666 
z
" transform="scale(0.015625)"/>
       <path id="DejaVuSans-53" d="M 3425 4513 
L 3425 3897 
Q 3066 4069 2747 4153 
Q 2428 4238 2131 4238 
Q 1616 4238 1336 4038 
Q 1056 3838 1056 3469 
Q 1056 3159 1242 3001 
Q 1428 2844 1947 2747 
L 2328 2669 
Q 3034 2534 3370 2195 
Q 3706 1856 3706 1288 
Q 3706 609 3251 259 
Q 2797 -91 1919 -91 
Q 1588 -91 1214 -16 
Q 841 59 441 206 
L 441 856 
Q 825 641 1194 531 
Q 1563 422 1919 422 
Q 2459 422 2753 634 
Q 3047 847 3047 1241 
Q 3047 1584 2836 1778 
Q 2625 1972 2144 2069 
L 1759 2144 
Q 1053 2284 737 2584 
Q 422 2884 422 3419 
Q 422 4038 858 4394 
Q 1294 4750 2059 4750 
Q 2388 4750 2728 4690 
Q 3069 4631 3425 4513 
z
" transform="scale(0.015625)"/>
       <path id="DejaVuSans-75" d="M 544 1381 
L 544 3500 
L 1119 3500 
L 1119 1403 
Q 1119 906 1312 657 
Q 1506 409 1894 409 
Q 2359 409 2629 706 
Q 2900 1003 2900 1516 
L 2900 3500 
L 3475 3500 
L 3475 0 
L 2900 0 
L 2900 538 
Q 2691 219 2414 64 
Q 2138 -91 1772 -91 
Q 1169 -91 856 284 
Q 544 659 544 1381 
z
M 1991 3584 
L 1991 3584 
z
" transform="scale(0.015625)"/>
       <path id="DejaVuSans-28" d="M 1984 4856 
Q 1566 4138 1362 3434 
Q 1159 2731 1159 2009 
Q 1159 1288 1364 580 
Q 1569 -128 1984 -844 
L 1484 -844 
Q 1016 -109 783 600 
Q 550 1309 550 2009 
Q 550 2706 781 3412 
Q 1013 4119 1484 4856 
L 1984 4856 
z
" transform="scale(0.015625)"/>
       <path id="DejaVuSans-6d" d="M 3328 2828 
Q 3544 3216 3844 3400 
Q 4144 3584 4550 3584 
Q 5097 3584 5394 3201 
Q 5691 2819 5691 2113 
L 5691 0 
L 5113 0 
L 5113 2094 
Q 5113 2597 4934 2840 
Q 4756 3084 4391 3084 
Q 3944 3084 3684 2787 
Q 3425 2491 3425 1978 
L 3425 0 
L 2847 0 
L 2847 2094 
Q 2847 2600 2669 2842 
Q 2491 3084 2119 3084 
Q 1678 3084 1418 2786 
Q 1159 2488 1159 1978 
L 1159 0 
L 581 0 
L 581 3500 
L 1159 3500 
L 1159 2956 
Q 1356 3278 1631 3431 
Q 1906 3584 2284 3584 
Q 2666 3584 2933 3390 
Q 3200 3197 3328 2828 
z
" transform="scale(0.015625)"/>
       <path id="DejaVuSans-29" d="M 513 4856 
L 1013 4856 
Q 1481 4119 1714 3412 
Q 1947 2706 1947 2009 
Q 1947 1309 1714 600 
Q 1481 -109 1013 -844 
L 513 -844 
Q 928 -128 1133 580 
Q 1338 1288 1338 2009 
Q 1338 2731 1133 3434 
Q 928 4138 513 4856 
z
" transform="scale(0.015625)"/>
      </defs>
      <use xlink:href="#DejaVuSans-4d"/>
      <use xlink:href="#DejaVuSans-65" x="86.279297"/>
      <use xlink:href="#DejaVuSans-61" x="147.802734"/>
      <use xlink:href="#DejaVuSans-6e" x="209.082031"/>
      <use xlink:href="#DejaVuSans-20" x="272.460938"/>
      <use xlink:href="#DejaVuSans-70" x="304.248047"/>
      <use xlink:href="#DejaVuSans-6f" x="367.724609"/>
      <use xlink:href="#DejaVuSans-73" x="428.90625"/>
      <use xlink:href="#DejaVuSans-69" x="481.005859"/>
      <use xlink:href="#DejaVuSans-74" x="508.789062"/>
      <use xlink:href="#DejaVuSans-69" x="547.998047"/>
      <use xlink:href="#DejaVuSans-6f" x="575.78125"/>
      <use xlink:href="#DejaVuSans-6e" x="636.962891"/>
      <use xlink:href="#DejaVuSans-20" x="700.341797"/>
      <use xlink:href="#DejaVuSans-65" x="732.128906"/>
      <use xlink:href="#DejaVuSans-72" x="793.652344"/>
      <use xlink:href="#DejaVuSans-72" x="833.015625"/>
      <use xlink:href="#DejaVuSans-6f" x="871.878906"/>
      <use xlink:href="#DejaVuSans-72" x="933.060547"/>
      <use xlink:href="#DejaVuSans-20" x="974.173828"/>
      <use xlink:href="#DejaVuSans-66" x="1005.960938"/>
      <use xlink:href="#DejaVuSans-6f" x="1041.166016"/>
      <use xlink:href="#DejaVuSans-72" x="1102.347656"/>
      <use xlink:href="#DejaVuSans-20" x="1143.460938"/>
      <use xlink:href="#DejaVuSans-61" x="1175.248047"/>
      <use xlink:href="#DejaVuSans-20" x="1236.527344"/>
      <use xlink:href="#DejaVuSans-4e" x="1268.314453"/>
      <use xlink:href="#DejaVuSans-4c" x="1343.119141"/>
      <use xlink:href="#DejaVuSans-6f" x="1397.082031"/>
      <use xlink:href="#DejaVuSans-53" x="1458.263672"/>
      <use xlink:href="#DejaVuSans-20" x="1521.740234"/>
      <use xlink:href="#DejaVuSans-75" x="1553.527344"/>
      <use xlink:href="#DejaVuSans-73" x="1616.90625"/>
      <use xlink:href="#DejaVuSans-65" x="1669.005859"/>
      <use xlink:href="#DejaVuSans-72" x="1730.529297"/>
      <use xlink:href="#DejaVuSans-20" x="1771.642578"/>
      <use xlink:href="#DejaVuSans-28" x="1803.429688"/>
      <use xlink:href="#DejaVuSans-6d" x="1842.443359"/>
      <use xlink:href="#DejaVuSans-29" x="1939.855469"/>
     </g>
    </g>
   </g>
   <g id="line2d_33">
    <path d="M 77.711048 62.921739 
L 125.133144 115.902647 
L 172.555241 161.53458 
L 219.977337 212.022911 
L 267.399433 242.985995 
L 314.82153 248.700293 
L 362.243626 249.075426 
" clip-path="url(#pa04fccaf33)" style="fill: none; stroke: #2ca02c; stroke-width: 1.5; stroke-linecap: square"/>
    <defs>
     <path id="m80dbd11a8f" d="M -2.5 2.5 
L 2.5 2.5 
L 2.5 -2.5 
L -2.5 -2.5 
z
" style="stroke: #2ca02c; stroke-linejoin: miter"/>
    </defs>
    <g clip-path="url(#pa04fccaf33)">
     <use xlink:href="#m80dbd11a8f" x="77.711048" y="62.921739" style="fill: #ffffff; stroke: #2ca02c; stroke-linejoin: miter"/>
     <use xlink:href="#m80dbd11a8f" x="125.133144" y="115.902647" style="fill: #ffffff; stroke: #2ca02c; stroke-linejoin: miter"/>
     <use xlink:href="#m80dbd11a8f" x="172.555241" y="161.53458" style="fill: #ffffff; stroke: #2ca02c; stroke-linejoin: miter"/>
     <use xlink:href="#m80dbd11a8f" x="219.977337" y="212.022911" style="fill: #ffffff; stroke: #2ca02c; stroke-linejoin: miter"/>
     <use xlink:href="#m80dbd11a8f" x="267.399433" y="242.985995" style="fill: #ffffff; stroke: #2ca02c; stroke-linejoin: miter"/>
     <use xlink:href="#m80dbd11a8f" x="314.82153" y="248.700293" style="fill: #ffffff; stroke: #2ca02c; stroke-linejoin: miter"/>
     <use xlink:href="#m80dbd11a8f" x="362.243626" y="249.075426" style="fill: #ffffff; stroke: #2ca02c; stroke-linejoin: miter"/>
    </g>
   </g>
   <g id="line2d_34">
    <path d="M 77.711048 62.921739 
L 125.133144 63.294589 
L 172.555241 69.26598 
L 219.977337 75.284678 
L 267.399433 89.25006 
L 314.82153 96.208354 
L 362.243626 98.56456 
" clip-path="url(#pa04fccaf33)" style="fill: none; stroke: #1f77b4; stroke-width: 1.5; stroke-linecap: square"/>
    <defs>
     <path id="m102145bbd8" d="M -0 3.535534 
L 3.535534 0 
L 0 -3.535534 
L -3.535534 -0 
z
" style="stroke: #1f77b4; stroke-linejoin: miter"/>
    </defs>
    <g clip-path="url(#pa04fccaf33)">
     <use xlink:href="#m102145bbd8" x="77.711048" y="62.921739" style="fill: #ffffff; stroke: #1f77b4; stroke-linejoin: miter"/>
     <use xlink:href="#m102145bbd8" x="125.133144" y="63.294589" style="fill: #ffffff; stroke: #1f77b4; stroke-linejoin: miter"/>
     <use xlink:href="#m102145bbd8" x="172.555241" y="69.26598" style="fill: #ffffff; stroke: #1f77b4; stroke-linejoin: miter"/>
     <use xlink:href="#m102145bbd8" x="219.977337" y="75.284678" style="fill: #ffffff; stroke: #1f77b4; stroke-linejoin: miter"/>
     <use xlink:href="#m102145bbd8" x="267.399433" y="89.25006" style="fill: #ffffff; stroke: #1f77b4; stroke-linejoin: miter"/>
     <use xlink:href="#m102145bbd8" x="314.82153" y="96.208354" style="fill: #ffffff; stroke: #1f77b4; stroke-linejoin: miter"/>
     <use xlink:href="#m102145bbd8" x="362.243626" y="98.56456" style="fill: #ffffff; stroke: #1f77b4; stroke-linejoin: miter"/>
    </g>
   </g>
   <g id="line2d_35">
    <path d="M 77.711048 62.921739 
L 125.133144 63.911092 
L 172.555241 72.055851 
L 219.977337 76.428152 
L 267.399433 82.444352 
L 314.82153 86.682057 
L 362.243626 91.919095 
" clip-path="url(#pa04fccaf33)" style="fill: none; stroke: #ff7f0e; stroke-width: 1.5; stroke-linecap: square"/>
    <defs>
     <path id="mb88912211c" d="M 0 -3.5 
L -3.5 3.5 
L 3.5 3.5 
z
" style="stroke: #ff7f0e; stroke-linejoin: miter"/>
    </defs>
    <g clip-path="url(#pa04fccaf33)">
     <use xlink:href="#mb88912211c" x="77.711048" y="62.921739" style="fill: #ffffff; stroke: #ff7f0e; stroke-linejoin: miter"/>
     <use xlink:href="#mb88912211c" x="125.133144" y="63.911092" style="fill: #ffffff; stroke: #ff7f0e; stroke-linejoin: miter"/>
     <use xlink:href="#mb88912211c" x="172.555241" y="72.055851" style="fill: #ffffff; stroke: #ff7f0e; stroke-linejoin: miter"/>
     <use xlink:href="#mb88912211c" x="219.977337" y="76.428152" style="fill: #ffffff; stroke: #ff7f0e; stroke-linejoin: miter"/>
     <use xlink:href="#mb88912211c" x="267.399433" y="82.444352" style="fill: #ffffff; stroke: #ff7f0e; stroke-linejoin: miter"/>
     <use xlink:href="#mb88912211c" x="314.82153" y="86.682057" style="fill: #ffffff; stroke: #ff7f0e; stroke-linejoin: miter"/>
     <use xlink:href="#mb88912211c" x="362.243626" y="91.919095" style="fill: #ffffff; stroke: #ff7f0e; stroke-linejoin: miter"/>
    </g>
   </g>
   <g id="line2d_36">
    <path d="M 77.711048 62.921739 
L 125.133144 184.681575 
L 172.555241 247.50501 
L 219.977337 250.829455 
L 267.399433 250.848851 
L 314.82153 250.98304 
L 362.243626 251.406675 
" clip-path="url(#pa04fccaf33)" style="fill: none; stroke: #d62728; stroke-width: 1.5; stroke-linecap: square"/>
    <defs>
     <path id="ma9fb9577fd" d="M 0 -4.5 
L -1.010313 -1.390576 
L -4.279754 -1.390576 
L -1.634721 0.531153 
L -2.645034 3.640576 
L -0 1.718847 
L 2.645034 3.640576 
L 1.634721 0.531153 
L 4.279754 -1.390576 
L 1.010313 -1.390576 
z
" style="stroke: #d62728; stroke-linejoin: bevel"/>
    </defs>
    <g clip-path="url(#pa04fccaf33)">
     <use xlink:href="#ma9fb9577fd" x="77.711048" y="62.921739" style="fill: #ffffff; stroke: #d62728; stroke-linejoin: bevel"/>
     <use xlink:href="#ma9fb9577fd" x="125.133144" y="184.681575" style="fill: #ffffff; stroke: #d62728; stroke-linejoin: bevel"/>
     <use xlink:href="#ma9fb9577fd" x="172.555241" y="247.50501" style="fill: #ffffff; stroke: #d62728; stroke-linejoin: bevel"/>
     <use xlink:href="#ma9fb9577fd" x="219.977337" y="250.829455" style="fill: #ffffff; stroke: #d62728; stroke-linejoin: bevel"/>
     <use xlink:href="#ma9fb9577fd" x="267.399433" y="250.848851" style="fill: #ffffff; stroke: #d62728; stroke-linejoin: bevel"/>
     <use xlink:href="#ma9fb9577fd" x="314.82153" y="250.98304" style="fill: #ffffff; stroke: #d62728; stroke-linejoin: bevel"/>
     <use xlink:href="#ma9fb9577fd" x="362.243626" y="251.406675" style="fill: #ffffff; stroke: #d62728; stroke-linejoin: bevel"/>
    </g>
   </g>
   <g id="patch_3">
    <path d="M 54 252 
L 54 34.56 
" style="fill: none; stroke: #000000; stroke-width: 0.8; stroke-linejoin: miter; stroke-linecap: square"/>
   </g>
   <g id="patch_4">
    <path d="M 388.8 252 
L 388.8 34.56 
" style="fill: none; stroke: #000000; stroke-width: 0.8; stroke-linejoin: miter; stroke-linecap: square"/>
   </g>
   <g id="patch_5">
    <path d="M 54 252 
L 388.8 252 
" style="fill: none; stroke: #000000; stroke-width: 0.8; stroke-linejoin: miter; stroke-linecap: square"/>
   </g>
   <g id="patch_6">
    <path d="M 54 34.56 
L 388.8 34.56 
" style="fill: none; stroke: #000000; stroke-width: 0.8; stroke-linejoin: miter; stroke-linecap: square"/>
   </g>
   <g id="text_19">
    <!-- |$\mathcal{K}|$=3 -->
    <g transform="translate(122.76204 112.270808) scale(0.08 -0.08)">
     <defs>
      <path id="DejaVuSans-7c" d="M 1344 4891 
L 1344 -1509 
L 813 -1509 
L 813 4891 
L 1344 4891 
z
" transform="scale(0.015625)"/>
      <path id="STIXNonUnicode-Italic-e237" d="M 1971 2874 
L 2010 2854 
Q 2528 3430 3142 3859 
Q 3757 4288 4275 4288 
Q 4621 4288 4816 4105 
Q 5011 3923 5011 3622 
Q 5011 3354 4864 3158 
Q 4717 2963 4486 2963 
Q 4346 2963 4256 3059 
Q 4166 3155 4166 3290 
Q 4166 3411 4220 3481 
Q 4275 3552 4342 3574 
Q 4410 3597 4464 3648 
Q 4518 3699 4518 3782 
Q 4518 3878 4441 3955 
Q 4365 4032 4230 4032 
Q 3789 4032 3232 3635 
Q 2675 3238 2118 2566 
Q 2336 1587 2835 960 
Q 3334 333 3904 333 
Q 4122 333 4371 464 
Q 4621 595 4768 806 
L 4896 704 
Q 4723 474 4569 326 
Q 4416 179 4128 48 
Q 3840 -83 3488 -83 
Q 2886 -83 2371 477 
Q 1856 1037 1690 1709 
L 1434 813 
Q 1280 262 1049 131 
Q 819 0 192 0 
L 237 154 
Q 429 154 557 374 
Q 685 595 858 1197 
L 1517 3514 
Q 1542 3590 1542 3661 
Q 1542 3853 1242 3853 
Q 1171 3853 1126 3846 
L 1158 4006 
Q 1882 4083 2355 4237 
L 1971 2874 
z
" transform="scale(0.015625)"/>
      <path id="DejaVuSans-3d" d="M 678 2906 
L 4684 2906 
L 4684 2381 
L 678 2381 
L 678 2906 
z
M 678 1631 
L 4684 1631 
L 4684 1100 
L 678 1100 
L 678 1631 
z
" transform="scale(0.015625)"/>
     </defs>
     <use xlink:href="#DejaVuSans-7c" transform="translate(0 0.578125)"/>
     <use xlink:href="#STIXNonUnicode-Italic-e237" transform="translate(33.691406 0.578125)"/>
     <use xlink:href="#DejaVuSans-7c" transform="translate(114.5914 0.578125)"/>
     <use xlink:href="#DejaVuSans-3d" transform="translate(148.282806 0.578125)"/>
     <use xlink:href="#DejaVuSans-33" transform="translate(232.071869 0.578125)"/>
    </g>
   </g>
   <g id="text_20">
    <!-- |$\mathcal{K}|$=4 -->
    <g transform="translate(170.184136 157.902741) scale(0.08 -0.08)">
     <use xlink:href="#DejaVuSans-7c" transform="translate(0 0.578125)"/>
     <use xlink:href="#STIXNonUnicode-Italic-e237" transform="translate(33.691406 0.578125)"/>
     <use xlink:href="#DejaVuSans-7c" transform="translate(114.5914 0.578125)"/>
     <use xlink:href="#DejaVuSans-3d" transform="translate(148.282806 0.578125)"/>
     <use xlink:href="#DejaVuSans-34" transform="translate(232.071869 0.578125)"/>
    </g>
   </g>
   <g id="text_21">
    <!-- |$\mathcal{K}|$=6 -->
    <g transform="translate(217.606232 208.391071) scale(0.08 -0.08)">
     <use xlink:href="#DejaVuSans-7c" transform="translate(0 0.578125)"/>
     <use xlink:href="#STIXNonUnicode-Italic-e237" transform="translate(33.691406 0.578125)"/>
     <use xlink:href="#DejaVuSans-7c" transform="translate(114.5914 0.578125)"/>
     <use xlink:href="#DejaVuSans-3d" transform="translate(148.282806 0.578125)"/>
     <use xlink:href="#DejaVuSans-36" transform="translate(232.071869 0.578125)"/>
    </g>
   </g>
   <g id="text_22">
    <!-- |$\mathcal{K}|$=8 -->
    <g transform="translate(265.028329 239.354156) scale(0.08 -0.08)">
     <use xlink:href="#DejaVuSans-7c" transform="translate(0 0.578125)"/>
     <use xlink:href="#STIXNonUnicode-Italic-e237" transform="translate(33.691406 0.578125)"/>
     <use xlink:href="#DejaVuSans-7c" transform="translate(114.5914 0.578125)"/>
     <use xlink:href="#DejaVuSans-3d" transform="translate(148.282806 0.578125)"/>
     <use xlink:href="#DejaVuSans-38" transform="translate(232.071869 0.578125)"/>
    </g>
   </g>
   <g id="text_23">
    <!-- |$\mathcal{K}|$=10 -->
    <g transform="translate(312.450425 245.068454) scale(0.08 -0.08)">
     <use xlink:href="#DejaVuSans-7c" transform="translate(0 0.578125)"/>
     <use xlink:href="#STIXNonUnicode-Italic-e237" transform="translate(33.691406 0.578125)"/>
     <use xlink:href="#DejaVuSans-7c" transform="translate(114.5914 0.578125)"/>
     <use xlink:href="#DejaVuSans-3d" transform="translate(148.282806 0.578125)"/>
     <use xlink:href="#DejaVuSans-31" transform="translate(232.071869 0.578125)"/>
     <use xlink:href="#DejaVuSans-30" transform="translate(295.694916 0.578125)"/>
    </g>
   </g>
   <g id="text_24">
    <!-- |$\mathcal{K}|$=12 -->
    <g transform="translate(359.872521 245.443587) scale(0.08 -0.08)">
     <use xlink:href="#DejaVuSans-7c" transform="translate(0 0.578125)"/>
     <use xlink:href="#STIXNonUnicode-Italic-e237" transform="translate(33.691406 0.578125)"/>
     <use xlink:href="#DejaVuSans-7c" transform="translate(114.5914 0.578125)"/>
     <use xlink:href="#DejaVuSans-3d" transform="translate(148.282806 0.578125)"/>
     <use xlink:href="#DejaVuSans-31" transform="translate(232.071869 0.578125)"/>
     <use xlink:href="#DejaVuSans-32" transform="translate(295.694916 0.578125)"/>
    </g>
   </g>
   <g id="text_25">
    <!-- |$\mathcal{B}|$=2 -->
    <g transform="translate(122.76204 59.66275) scale(0.08 -0.08)">
     <defs>
      <path id="STIXNonUnicode-Italic-e22e" d="M 2080 3341 
L 2099 3328 
Q 2810 4288 3853 4288 
Q 4154 4288 4346 4102 
Q 4538 3917 4538 3622 
Q 4538 3213 4173 2893 
Q 3808 2573 3430 2451 
Q 3866 2406 4144 2169 
Q 4422 1933 4422 1485 
Q 4422 1152 4211 857 
Q 4000 563 3677 377 
Q 3354 192 2986 86 
Q 2618 -19 2291 -19 
Q 1792 -19 1517 186 
L 1587 326 
Q 1843 198 2272 198 
Q 2854 198 3296 595 
Q 3738 992 3738 1478 
Q 3738 1798 3459 2003 
Q 3181 2208 2630 2208 
L 2208 2208 
L 2278 2451 
L 2400 2451 
Q 2611 2451 2867 2508 
Q 3123 2566 3385 2681 
Q 3648 2797 3824 3008 
Q 4000 3219 4000 3482 
Q 4000 3987 3456 3987 
Q 3245 3987 3008 3865 
Q 2771 3744 2624 3590 
Q 2349 3315 2144 2908 
Q 1939 2502 1715 1728 
L 1478 909 
Q 1344 448 1193 253 
Q 1043 58 666 13 
Q 544 0 224 0 
L 282 154 
Q 474 154 576 333 
Q 678 512 870 1190 
L 1536 3514 
Q 1555 3571 1555 3667 
Q 1555 3859 1286 3859 
L 1146 3859 
L 1171 4013 
Q 1875 4077 2355 4237 
L 2080 3341 
z
" transform="scale(0.015625)"/>
     </defs>
     <use xlink:href="#DejaVuSans-7c" transform="translate(0 0.578125)"/>
     <use xlink:href="#STIXNonUnicode-Italic-e22e" transform="translate(33.691406 0.578125)"/>
     <use xlink:href="#DejaVuSans-7c" transform="translate(106.0914 0.578125)"/>
     <use xlink:href="#DejaVuSans-3d" transform="translate(139.782806 0.578125)"/>
     <use xlink:href="#DejaVuSans-32" transform="translate(223.571869 0.578125)"/>
    </g>
   </g>
   <g id="text_26">
    <!-- |$\mathcal{B}|$=4 -->
    <g transform="translate(170.184136 65.634141) scale(0.08 -0.08)">
     <use xlink:href="#DejaVuSans-7c" transform="translate(0 0.578125)"/>
     <use xlink:href="#STIXNonUnicode-Italic-e22e" transform="translate(33.691406 0.578125)"/>
     <use xlink:href="#DejaVuSans-7c" transform="translate(106.0914 0.578125)"/>
     <use xlink:href="#DejaVuSans-3d" transform="translate(139.782806 0.578125)"/>
     <use xlink:href="#DejaVuSans-34" transform="translate(223.571869 0.578125)"/>
    </g>
   </g>
   <g id="text_27">
    <!-- |$\mathcal{B}|$=6 -->
    <g transform="translate(217.606232 71.652839) scale(0.08 -0.08)">
     <use xlink:href="#DejaVuSans-7c" transform="translate(0 0.578125)"/>
     <use xlink:href="#STIXNonUnicode-Italic-e22e" transform="translate(33.691406 0.578125)"/>
     <use xlink:href="#DejaVuSans-7c" transform="translate(106.0914 0.578125)"/>
     <use xlink:href="#DejaVuSans-3d" transform="translate(139.782806 0.578125)"/>
     <use xlink:href="#DejaVuSans-36" transform="translate(223.571869 0.578125)"/>
    </g>
   </g>
   <g id="text_28">
    <!-- |$\mathcal{B}|$=8 -->
    <g transform="translate(265.028329 98.833738) scale(0.08 -0.08)">
     <use xlink:href="#DejaVuSans-7c" transform="translate(0 0.578125)"/>
     <use xlink:href="#STIXNonUnicode-Italic-e22e" transform="translate(33.691406 0.578125)"/>
     <use xlink:href="#DejaVuSans-7c" transform="translate(106.0914 0.578125)"/>
     <use xlink:href="#DejaVuSans-3d" transform="translate(139.782806 0.578125)"/>
     <use xlink:href="#DejaVuSans-38" transform="translate(223.571869 0.578125)"/>
    </g>
   </g>
   <g id="text_29">
    <!-- |$\mathcal{B}|$=10 -->
    <g transform="translate(312.450425 105.792033) scale(0.08 -0.08)">
     <use xlink:href="#DejaVuSans-7c" transform="translate(0 0.578125)"/>
     <use xlink:href="#STIXNonUnicode-Italic-e22e" transform="translate(33.691406 0.578125)"/>
     <use xlink:href="#DejaVuSans-7c" transform="translate(106.0914 0.578125)"/>
     <use xlink:href="#DejaVuSans-3d" transform="translate(139.782806 0.578125)"/>
     <use xlink:href="#DejaVuSans-31" transform="translate(223.571869 0.578125)"/>
     <use xlink:href="#DejaVuSans-30" transform="translate(287.194916 0.578125)"/>
    </g>
   </g>
   <g id="text_30">
    <!-- |$\mathcal{B}|$=12 -->
    <g transform="translate(359.872521 108.148238) scale(0.08 -0.08)">
     <use xlink:href="#DejaVuSans-7c" transform="translate(0 0.578125)"/>
     <use xlink:href="#STIXNonUnicode-Italic-e22e" transform="translate(33.691406 0.578125)"/>
     <use xlink:href="#DejaVuSans-7c" transform="translate(106.0914 0.578125)"/>
     <use xlink:href="#DejaVuSans-3d" transform="translate(139.782806 0.578125)"/>
     <use xlink:href="#DejaVuSans-31" transform="translate(223.571869 0.578125)"/>
     <use xlink:href="#DejaVuSans-32" transform="translate(287.194916 0.578125)"/>
    </g>
   </g>
   <g id="text_31">
    <!-- |$\mathcal{T}|$=2 -->
    <g transform="translate(122.76204 73.49477) scale(0.08 -0.08)">
     <defs>
      <path id="STIXNonUnicode-Italic-e240" d="M 4557 4614 
L 4672 4518 
Q 4134 3635 2746 3578 
L 2054 1197 
Q 1933 787 1801 537 
Q 1670 288 1484 173 
Q 1299 58 1136 29 
Q 973 0 691 0 
L 749 154 
Q 934 154 1059 326 
Q 1184 499 1286 870 
L 1882 2944 
Q 2042 3520 2042 3635 
Q 2042 3731 1974 3785 
Q 1907 3840 1818 3840 
Q 1498 3840 1110 3664 
Q 723 3488 390 3053 
L 262 3142 
Q 678 3744 1212 3993 
Q 1747 4243 2733 4243 
Q 2867 4243 3078 4224 
Q 3290 4205 3379 4205 
Q 4288 4205 4557 4614 
z
" transform="scale(0.015625)"/>
     </defs>
     <use xlink:href="#DejaVuSans-7c" transform="translate(0 0.578125)"/>
     <use xlink:href="#STIXNonUnicode-Italic-e240" transform="translate(33.691406 0.578125)"/>
     <use xlink:href="#DejaVuSans-7c" transform="translate(84.5914 0.578125)"/>
     <use xlink:href="#DejaVuSans-3d" transform="translate(118.282806 0.578125)"/>
     <use xlink:href="#DejaVuSans-32" transform="translate(202.071869 0.578125)"/>
    </g>
   </g>
   <g id="text_32">
    <!-- |$\mathcal{T}|$=4 -->
    <g transform="translate(170.184136 81.639529) scale(0.08 -0.08)">
     <use xlink:href="#DejaVuSans-7c" transform="translate(0 0.578125)"/>
     <use xlink:href="#STIXNonUnicode-Italic-e240" transform="translate(33.691406 0.578125)"/>
     <use xlink:href="#DejaVuSans-7c" transform="translate(84.5914 0.578125)"/>
     <use xlink:href="#DejaVuSans-3d" transform="translate(118.282806 0.578125)"/>
     <use xlink:href="#DejaVuSans-34" transform="translate(202.071869 0.578125)"/>
    </g>
   </g>
   <g id="text_33">
    <!-- |$\mathcal{T}|$=6 -->
    <g transform="translate(217.606232 86.011831) scale(0.08 -0.08)">
     <use xlink:href="#DejaVuSans-7c" transform="translate(0 0.578125)"/>
     <use xlink:href="#STIXNonUnicode-Italic-e240" transform="translate(33.691406 0.578125)"/>
     <use xlink:href="#DejaVuSans-7c" transform="translate(84.5914 0.578125)"/>
     <use xlink:href="#DejaVuSans-3d" transform="translate(118.282806 0.578125)"/>
     <use xlink:href="#DejaVuSans-36" transform="translate(202.071869 0.578125)"/>
    </g>
   </g>
   <g id="text_34">
    <!-- |$\mathcal{T}|$=8 -->
    <g transform="translate(265.028329 78.812513) scale(0.08 -0.08)">
     <use xlink:href="#DejaVuSans-7c" transform="translate(0 0.578125)"/>
     <use xlink:href="#STIXNonUnicode-Italic-e240" transform="translate(33.691406 0.578125)"/>
     <use xlink:href="#DejaVuSans-7c" transform="translate(84.5914 0.578125)"/>
     <use xlink:href="#DejaVuSans-3d" transform="translate(118.282806 0.578125)"/>
     <use xlink:href="#DejaVuSans-38" transform="translate(202.071869 0.578125)"/>
    </g>
   </g>
   <g id="text_35">
    <!-- |$\mathcal{T}|$=10 -->
    <g transform="translate(312.450425 83.050217) scale(0.08 -0.08)">
     <use xlink:href="#DejaVuSans-7c" transform="translate(0 0.578125)"/>
     <use xlink:href="#STIXNonUnicode-Italic-e240" transform="translate(33.691406 0.578125)"/>
     <use xlink:href="#DejaVuSans-7c" transform="translate(84.5914 0.578125)"/>
     <use xlink:href="#DejaVuSans-3d" transform="translate(118.282806 0.578125)"/>
     <use xlink:href="#DejaVuSans-31" transform="translate(202.071869 0.578125)"/>
     <use xlink:href="#DejaVuSans-30" transform="translate(265.694916 0.578125)"/>
    </g>
   </g>
   <g id="text_36">
    <!-- |$\mathcal{T}|$=12 -->
    <g transform="translate(359.872521 88.287256) scale(0.08 -0.08)">
     <use xlink:href="#DejaVuSans-7c" transform="translate(0 0.578125)"/>
     <use xlink:href="#STIXNonUnicode-Italic-e240" transform="translate(33.691406 0.578125)"/>
     <use xlink:href="#DejaVuSans-7c" transform="translate(84.5914 0.578125)"/>
     <use xlink:href="#DejaVuSans-3d" transform="translate(118.282806 0.578125)"/>
     <use xlink:href="#DejaVuSans-31" transform="translate(202.071869 0.578125)"/>
     <use xlink:href="#DejaVuSans-32" transform="translate(265.694916 0.578125)"/>
    </g>
   </g>
   <g id="text_37">
    <!-- $(|\mathcal{K}|,|\mathcal{B}|,|\mathcal{T}|)$ -->
    <g transform="translate(54.231048 48.619811) scale(0.08 -0.08)">
     <defs>
      <path id="DejaVuSans-2c" d="M 750 794 
L 1409 794 
L 1409 256 
L 897 -744 
L 494 -744 
L 750 256 
L 750 794 
z
" transform="scale(0.015625)"/>
     </defs>
     <use xlink:href="#DejaVuSans-28" transform="translate(0 0.578125)"/>
     <use xlink:href="#DejaVuSans-7c" transform="translate(39.013672 0.578125)"/>
     <use xlink:href="#STIXNonUnicode-Italic-e237" transform="translate(72.705078 0.578125)"/>
     <use xlink:href="#DejaVuSans-7c" transform="translate(153.605072 0.578125)"/>
     <use xlink:href="#DejaVuSans-2c" transform="translate(187.296478 0.578125)"/>
     <use xlink:href="#DejaVuSans-7c" transform="translate(238.56601 0.578125)"/>
     <use xlink:href="#STIXNonUnicode-Italic-e22e" transform="translate(272.257416 0.578125)"/>
     <use xlink:href="#DejaVuSans-7c" transform="translate(344.65741 0.578125)"/>
     <use xlink:href="#DejaVuSans-2c" transform="translate(378.348816 0.578125)"/>
     <use xlink:href="#DejaVuSans-7c" transform="translate(429.618347 0.578125)"/>
     <use xlink:href="#STIXNonUnicode-Italic-e240" transform="translate(463.309753 0.578125)"/>
     <use xlink:href="#DejaVuSans-7c" transform="translate(514.209747 0.578125)"/>
     <use xlink:href="#DejaVuSans-29" transform="translate(547.901154 0.578125)"/>
    </g>
    <!-- (2,1,1) -->
    <g transform="translate(64.412298 57.834311) scale(0.08 -0.08)">
     <use xlink:href="#DejaVuSans-28"/>
     <use xlink:href="#DejaVuSans-32" x="39.013672"/>
     <use xlink:href="#DejaVuSans-2c" x="102.636719"/>
     <use xlink:href="#DejaVuSans-31" x="134.423828"/>
     <use xlink:href="#DejaVuSans-2c" x="198.046875"/>
     <use xlink:href="#DejaVuSans-31" x="229.833984"/>
     <use xlink:href="#DejaVuSans-29" x="293.457031"/>
    </g>
   </g>
   <g id="text_38">
    <!-- (3,2,2) -->
    <g transform="translate(111.834394 179.594147) scale(0.08 -0.08)">
     <use xlink:href="#DejaVuSans-28"/>
     <use xlink:href="#DejaVuSans-33" x="39.013672"/>
     <use xlink:href="#DejaVuSans-2c" x="102.636719"/>
     <use xlink:href="#DejaVuSans-32" x="134.423828"/>
     <use xlink:href="#DejaVuSans-2c" x="198.046875"/>
     <use xlink:href="#DejaVuSans-32" x="229.833984"/>
     <use xlink:href="#DejaVuSans-29" x="293.457031"/>
    </g>
   </g>
   <g id="text_39">
    <!-- (4,4,4) -->
    <g transform="translate(159.256491 242.417581) scale(0.08 -0.08)">
     <use xlink:href="#DejaVuSans-28"/>
     <use xlink:href="#DejaVuSans-34" x="39.013672"/>
     <use xlink:href="#DejaVuSans-2c" x="102.636719"/>
     <use xlink:href="#DejaVuSans-34" x="134.423828"/>
     <use xlink:href="#DejaVuSans-2c" x="198.046875"/>
     <use xlink:href="#DejaVuSans-34" x="229.833984"/>
     <use xlink:href="#DejaVuSans-29" x="293.457031"/>
    </g>
   </g>
   <g id="text_40">
    <!-- (6,6,6) -->
    <g transform="translate(206.678587 245.742027) scale(0.08 -0.08)">
     <use xlink:href="#DejaVuSans-28"/>
     <use xlink:href="#DejaVuSans-36" x="39.013672"/>
     <use xlink:href="#DejaVuSans-2c" x="102.636719"/>
     <use xlink:href="#DejaVuSans-36" x="134.423828"/>
     <use xlink:href="#DejaVuSans-2c" x="198.046875"/>
     <use xlink:href="#DejaVuSans-36" x="229.833984"/>
     <use xlink:href="#DejaVuSans-29" x="293.457031"/>
    </g>
   </g>
   <g id="legend_1">
    <g id="patch_7">
     <path d="M 227 174.769063 
L 381.8 174.769063 
Q 383.8 174.769063 383.8 172.769063 
L 383.8 113.790937 
Q 383.8 111.790937 381.8 111.790937 
L 227 111.790937 
Q 225 111.790937 225 113.790937 
L 225 172.769063 
Q 225 174.769063 227 174.769063 
z
" style="fill: #ffffff; opacity: 0.8; stroke: #cccccc; stroke-linejoin: miter"/>
    </g>
    <g id="line2d_37">
     <path d="M 229 119.990938 
L 239 119.990938 
L 249 119.990938 
" style="fill: none; stroke: #2ca02c; stroke-width: 1.5; stroke-linecap: square"/>
     <g>
      <use xlink:href="#m80dbd11a8f" x="239" y="119.990938" style="fill: #ffffff; stroke: #2ca02c; stroke-linejoin: miter"/>
     </g>
    </g>
    <g id="text_41">
     <!-- Number of Beams $|\mathcal{K}|$ -->
     <g transform="translate(257 123.490938) scale(0.1 -0.1)">
      <defs>
       <path id="DejaVuSans-62" d="M 3116 1747 
Q 3116 2381 2855 2742 
Q 2594 3103 2138 3103 
Q 1681 3103 1420 2742 
Q 1159 2381 1159 1747 
Q 1159 1113 1420 752 
Q 1681 391 2138 391 
Q 2594 391 2855 752 
Q 3116 1113 3116 1747 
z
M 1159 2969 
Q 1341 3281 1617 3432 
Q 1894 3584 2278 3584 
Q 2916 3584 3314 3078 
Q 3713 2572 3713 1747 
Q 3713 922 3314 415 
Q 2916 -91 2278 -91 
Q 1894 -91 1617 61 
Q 1341 213 1159 525 
L 1159 0 
L 581 0 
L 581 4863 
L 1159 4863 
L 1159 2969 
z
" transform="scale(0.015625)"/>
       <path id="DejaVuSans-42" d="M 1259 2228 
L 1259 519 
L 2272 519 
Q 2781 519 3026 730 
Q 3272 941 3272 1375 
Q 3272 1813 3026 2020 
Q 2781 2228 2272 2228 
L 1259 2228 
z
M 1259 4147 
L 1259 2741 
L 2194 2741 
Q 2656 2741 2882 2914 
Q 3109 3088 3109 3444 
Q 3109 3797 2882 3972 
Q 2656 4147 2194 4147 
L 1259 4147 
z
M 628 4666 
L 2241 4666 
Q 2963 4666 3353 4366 
Q 3744 4066 3744 3513 
Q 3744 3084 3544 2831 
Q 3344 2578 2956 2516 
Q 3422 2416 3680 2098 
Q 3938 1781 3938 1306 
Q 3938 681 3513 340 
Q 3088 0 2303 0 
L 628 0 
L 628 4666 
z
" transform="scale(0.015625)"/>
      </defs>
      <use xlink:href="#DejaVuSans-4e" transform="translate(0 0.578125)"/>
      <use xlink:href="#DejaVuSans-75" transform="translate(74.804688 0.578125)"/>
      <use xlink:href="#DejaVuSans-6d" transform="translate(138.183594 0.578125)"/>
      <use xlink:href="#DejaVuSans-62" transform="translate(235.595703 0.578125)"/>
      <use xlink:href="#DejaVuSans-65" transform="translate(299.072266 0.578125)"/>
      <use xlink:href="#DejaVuSans-72" transform="translate(360.595703 0.578125)"/>
      <use xlink:href="#DejaVuSans-20" transform="translate(401.708984 0.578125)"/>
      <use xlink:href="#DejaVuSans-6f" transform="translate(433.496094 0.578125)"/>
      <use xlink:href="#DejaVuSans-66" transform="translate(494.677734 0.578125)"/>
      <use xlink:href="#DejaVuSans-20" transform="translate(529.882812 0.578125)"/>
      <use xlink:href="#DejaVuSans-42" transform="translate(561.669922 0.578125)"/>
      <use xlink:href="#DejaVuSans-65" transform="translate(630.273438 0.578125)"/>
      <use xlink:href="#DejaVuSans-61" transform="translate(691.796875 0.578125)"/>
      <use xlink:href="#DejaVuSans-6d" transform="translate(753.076172 0.578125)"/>
      <use xlink:href="#DejaVuSans-73" transform="translate(850.488281 0.578125)"/>
      <use xlink:href="#DejaVuSans-20" transform="translate(902.587891 0.578125)"/>
      <use xlink:href="#DejaVuSans-7c" transform="translate(934.375 0.578125)"/>
      <use xlink:href="#STIXNonUnicode-Italic-e237" transform="translate(968.066406 0.578125)"/>
      <use xlink:href="#DejaVuSans-7c" transform="translate(1048.9664 0.578125)"/>
     </g>
    </g>
    <g id="line2d_38">
     <path d="M 229 135.090937 
L 239 135.090937 
L 249 135.090937 
" style="fill: none; stroke: #1f77b4; stroke-width: 1.5; stroke-linecap: square"/>
     <g>
      <use xlink:href="#m102145bbd8" x="239" y="135.090937" style="fill: #ffffff; stroke: #1f77b4; stroke-linejoin: miter"/>
     </g>
    </g>
    <g id="text_42">
     <!-- Number of Subbands $|\mathcal{B}|$ -->
     <g transform="translate(257 138.590937) scale(0.1 -0.1)">
      <use xlink:href="#DejaVuSans-4e" transform="translate(0 0.578125)"/>
      <use xlink:href="#DejaVuSans-75" transform="translate(74.804688 0.578125)"/>
      <use xlink:href="#DejaVuSans-6d" transform="translate(138.183594 0.578125)"/>
      <use xlink:href="#DejaVuSans-62" transform="translate(235.595703 0.578125)"/>
      <use xlink:href="#DejaVuSans-65" transform="translate(299.072266 0.578125)"/>
      <use xlink:href="#DejaVuSans-72" transform="translate(360.595703 0.578125)"/>
      <use xlink:href="#DejaVuSans-20" transform="translate(401.708984 0.578125)"/>
      <use xlink:href="#DejaVuSans-6f" transform="translate(433.496094 0.578125)"/>
      <use xlink:href="#DejaVuSans-66" transform="translate(494.677734 0.578125)"/>
      <use xlink:href="#DejaVuSans-20" transform="translate(529.882812 0.578125)"/>
      <use xlink:href="#DejaVuSans-53" transform="translate(561.669922 0.578125)"/>
      <use xlink:href="#DejaVuSans-75" transform="translate(625.146484 0.578125)"/>
      <use xlink:href="#DejaVuSans-62" transform="translate(688.525391 0.578125)"/>
      <use xlink:href="#DejaVuSans-62" transform="translate(752.001953 0.578125)"/>
      <use xlink:href="#DejaVuSans-61" transform="translate(815.478516 0.578125)"/>
      <use xlink:href="#DejaVuSans-6e" transform="translate(876.757812 0.578125)"/>
      <use xlink:href="#DejaVuSans-64" transform="translate(940.136719 0.578125)"/>
      <use xlink:href="#DejaVuSans-73" transform="translate(1003.613281 0.578125)"/>
      <use xlink:href="#DejaVuSans-20" transform="translate(1055.712891 0.578125)"/>
      <use xlink:href="#DejaVuSans-7c" transform="translate(1087.5 0.578125)"/>
      <use xlink:href="#STIXNonUnicode-Italic-e22e" transform="translate(1121.191406 0.578125)"/>
      <use xlink:href="#DejaVuSans-7c" transform="translate(1193.5914 0.578125)"/>
     </g>
    </g>
    <g id="line2d_39">
     <path d="M 229 150.190938 
L 239 150.190938 
L 249 150.190938 
" style="fill: none; stroke: #ff7f0e; stroke-width: 1.5; stroke-linecap: square"/>
     <g>
      <use xlink:href="#mb88912211c" x="239" y="150.190938" style="fill: #ffffff; stroke: #ff7f0e; stroke-linejoin: miter"/>
     </g>
    </g>
    <g id="text_43">
     <!-- Number of Times $|\mathcal{T}|$ -->
     <g transform="translate(257 153.690938) scale(0.1 -0.1)">
      <defs>
       <path id="DejaVuSans-54" d="M -19 4666 
L 3928 4666 
L 3928 4134 
L 2272 4134 
L 2272 0 
L 1638 0 
L 1638 4134 
L -19 4134 
L -19 4666 
z
" transform="scale(0.015625)"/>
      </defs>
      <use xlink:href="#DejaVuSans-4e" transform="translate(0 0.578125)"/>
      <use xlink:href="#DejaVuSans-75" transform="translate(74.804688 0.578125)"/>
      <use xlink:href="#DejaVuSans-6d" transform="translate(138.183594 0.578125)"/>
      <use xlink:href="#DejaVuSans-62" transform="translate(235.595703 0.578125)"/>
      <use xlink:href="#DejaVuSans-65" transform="translate(299.072266 0.578125)"/>
      <use xlink:href="#DejaVuSans-72" transform="translate(360.595703 0.578125)"/>
      <use xlink:href="#DejaVuSans-20" transform="translate(401.708984 0.578125)"/>
      <use xlink:href="#DejaVuSans-6f" transform="translate(433.496094 0.578125)"/>
      <use xlink:href="#DejaVuSans-66" transform="translate(494.677734 0.578125)"/>
      <use xlink:href="#DejaVuSans-20" transform="translate(529.882812 0.578125)"/>
      <use xlink:href="#DejaVuSans-54" transform="translate(561.669922 0.578125)"/>
      <use xlink:href="#DejaVuSans-69" transform="translate(622.753906 0.578125)"/>
      <use xlink:href="#DejaVuSans-6d" transform="translate(650.537109 0.578125)"/>
      <use xlink:href="#DejaVuSans-65" transform="translate(747.949219 0.578125)"/>
      <use xlink:href="#DejaVuSans-73" transform="translate(809.472656 0.578125)"/>
      <use xlink:href="#DejaVuSans-20" transform="translate(861.572266 0.578125)"/>
      <use xlink:href="#DejaVuSans-7c" transform="translate(893.359375 0.578125)"/>
      <use xlink:href="#STIXNonUnicode-Italic-e240" transform="translate(927.050781 0.578125)"/>
      <use xlink:href="#DejaVuSans-7c" transform="translate(977.950775 0.578125)"/>
     </g>
    </g>
    <g id="line2d_40">
     <path d="M 229 165.189375 
L 239 165.189375 
L 249 165.189375 
" style="fill: none; stroke: #d62728; stroke-width: 1.5; stroke-linecap: square"/>
     <g>
      <use xlink:href="#ma9fb9577fd" x="239" y="165.189375" style="fill: #ffffff; stroke: #d62728; stroke-linejoin: bevel"/>
     </g>
    </g>
    <g id="text_44">
     <!-- All -->
     <g transform="translate(257 168.689375) scale(0.1 -0.1)">
      <defs>
       <path id="DejaVuSans-41" d="M 2188 4044 
L 1331 1722 
L 3047 1722 
L 2188 4044 
z
M 1831 4666 
L 2547 4666 
L 4325 0 
L 3669 0 
L 3244 1197 
L 1141 1197 
L 716 0 
L 50 0 
L 1831 4666 
z
" transform="scale(0.015625)"/>
      </defs>
      <use xlink:href="#DejaVuSans-41"/>
      <use xlink:href="#DejaVuSans-6c" x="68.408203"/>
      <use xlink:href="#DejaVuSans-6c" x="96.191406"/>
     </g>
    </g>
   </g>
  </g>
 </g>
 <defs>
  <clipPath id="pa04fccaf33">
   <rect x="54" y="34.56" width="334.8" height="217.44"/>
  </clipPath>
 </defs>
</svg>
